<?xml version="1.0" encoding="utf-8"?>
<!-- Generator: Adobe Illustrator 27.0.0, SVG Export Plug-In . SVG Version: 6.00 Build 0)  -->
<svg version="1.1" id="Слой_1" xmlns="http://www.w3.org/2000/svg" xmlns:xlink="http://www.w3.org/1999/xlink" x="0px" y="0px"
	 viewBox="0 0 16 16" style="enable-background:new 0 0 16 16;" xml:space="preserve">
<style type="text/css">
	.st0{fill:#F89304;}
</style>
<path class="st0" d="M11.3,3.3H9.6v2.5h1.6L11.3,3.3L11.3,3.3z"/>
<path class="st0" d="M12.7,1.5c-0.2-0.3-0.5-0.4-0.8-0.4h-1.1H3.2C2.6,1.1,2,1.7,2,2.4v11.1c0,0.7,0.5,1.3,1.1,1.3h9.6
	c0.6,0,1.1-0.6,1.1-1.3V3.8c0-0.3-0.1-0.7-0.3-0.9L12.7,1.5z M5.1,6.3c-0.4,0-0.8-0.4-0.8-0.9V2h7.5v3.4c0,0.5-0.3,0.9-0.8,0.9H5.1z
	 M4.3,8.9h7.5c0.4,0,0.8,0.4,0.8,0.9V14H3.6V9.7C3.6,9.2,3.9,8.9,4.3,8.9"/>
</svg>
