<?xml version="1.0" encoding="utf-8"?>
<!-- Generator: Adobe Illustrator 28.0.0, SVG Export Plug-In . SVG Version: 6.00 Build 0)  -->
<svg version="1.1" id="Слой_1" xmlns="http://www.w3.org/2000/svg" xmlns:xlink="http://www.w3.org/1999/xlink" x="0px" y="0px"
	 viewBox="0 0 16 16" style="enable-background:new 0 0 16 16;" xml:space="preserve">
<style type="text/css">
	.st0{fill-rule:evenodd;clip-rule:evenodd;fill:#F89304;}
	.st1{fill:#F89304;}
</style>
<path class="st0" d="M8,3.9c2.8,0,5,2.2,5,5c0,2.8-2.2,5-5,5c-2.8,0-5-2.2-5-5c0-0.7,0.2-1.4,0.5-2.1c0.1-0.3,0-0.5-0.3-0.7
	C2.9,6,2.7,6.1,2.5,6.4c-1.4,3-0.1,6.6,2.9,8s6.6,0.1,8-2.9s0.1-6.6-2.9-8C9.7,3,8.9,2.9,8,2.9V3.9z"/>
<path class="st1" d="M8,5.3V1.4c0-0.1-0.1-0.2-0.3-0.2c-0.1,0-0.1,0-0.2,0.1l-2.4,2c-0.1,0.1-0.1,0.2,0,0.4c0,0,0,0,0,0l2.4,2
	c0.1,0.1,0.3,0.1,0.4,0C8,5.4,8,5.4,8,5.3"/>
</svg>
